<?xml version="1.0" encoding="UTF-8" standalone="no"?>
<!-- Created with Inkscape (http://www.inkscape.org/) -->

<svg
   width="1511.811"
   height="1511.811"
   viewBox="0 0 400 400"
   version="1.1"
   id="svg5"
   inkscape:version="1.2.1 (9c6d41e4, 2022-07-14)"
   sodipodi:docname="パス化.svg"
   xmlns:inkscape="http://www.inkscape.org/namespaces/inkscape"
   xmlns:sodipodi="http://sodipodi.sourceforge.net/DTD/sodipodi-0.dtd"
   xmlns="http://www.w3.org/2000/svg"
   xmlns:svg="http://www.w3.org/2000/svg">
  <sodipodi:namedview
     id="namedview7"
     pagecolor="#ffffff"
     bordercolor="#000000"
     borderopacity="0.25"
     inkscape:showpageshadow="2"
     inkscape:pageopacity="0.0"
     inkscape:pagecheckerboard="0"
     inkscape:deskcolor="#d1d1d1"
     inkscape:document-units="mm"
     showgrid="false"
     inkscape:zoom="0.27462506"
     inkscape:cx="-194.81106"
     inkscape:cy="881.20145"
     inkscape:window-width="1920"
     inkscape:window-height="976"
     inkscape:window-x="0"
     inkscape:window-y="25"
     inkscape:window-maximized="0"
     inkscape:current-layer="layer1" />
  <defs
     id="defs2">
    <rect
       x="509.78596"
       y="808.37488"
       width="487.93799"
       height="287.66493"
       id="rect5079" />
    <pattern
       inkscape:collect="always"
       patternUnits="userSpaceOnUse"
       width="2"
       height="1"
       patternTransform="translate(0,0) scale(10,10)"
       id="Strips1_1"
       inkscape:stockid="Stripes 1:1">
      <rect
         style="fill:black;stroke:none"
         x="0"
         y="-0.5"
         width="1"
         height="2"
         id="rect3406" />
    </pattern>
    <rect
       x="611.74315"
       y="633.59112"
       width="302.23025"
       height="276.74096"
       id="rect1704" />
    <rect
       x="662.72175"
       y="731.90699"
       width="338.64353"
       height="207.55571"
       id="rect1644" />
    <rect
       x="455.16604"
       y="578.9712"
       width="706.41769"
       height="768.32027"
       id="rect177" />
    <rect
       x="364.13283"
       y="513.42729"
       width="626.30846"
       height="400.54611"
       id="rect4073" />
    <rect
       x="546.19924"
       y="564.40588"
       width="429.67674"
       height="320.43689"
       id="rect2549" />
    <rect
       x="469.73135"
       y="651.79776"
       width="335.0022"
       height="142.0118"
       id="rect2539" />
  </defs>
  <g
     inkscape:label="Layer 1"
     inkscape:groupmode="layer"
     id="layer1">
    <text
       xml:space="preserve"
       transform="scale(0.26458333)"
       id="text2537"
       style="white-space:pre;shape-inside:url(#rect2539);display:inline;fill:none;stroke:none;stroke-width:26.0712;stroke-dasharray:none;stroke-opacity:1" />
    <text
       xml:space="preserve"
       style="font-size:3.175px;fill:none;stroke:none;stroke-width:6.898;stroke-dasharray:none;stroke-opacity:1"
       x="187.86978"
       y="185.94292"
       id="text2545"><tspan
         sodipodi:role="line"
         id="tspan2543"
         style="stroke-width:6.898"
         x="187.86978"
         y="185.94292">N</tspan></text>
    <text
       xml:space="preserve"
       transform="scale(0.26458333)"
       id="text2547"
       style="white-space:pre;shape-inside:url(#rect2549);display:inline;fill:none;stroke:none;stroke-width:26.0712;stroke-dasharray:none;stroke-opacity:1"><tspan
         x="546.19922"
         y="575.35421"
         id="tspan3034">NKS
</tspan></text>
    <text
       xml:space="preserve"
       transform="scale(0.26458333)"
       id="text4071"
       style="font-style:normal;font-variant:normal;font-weight:600;font-stretch:normal;font-size:53.3333px;font-family:Orbitron;-inkscape-font-specification:'Orbitron Semi-Bold';white-space:pre;shape-inside:url(#rect4073);display:inline;fill:#000000;stroke:#000000;stroke-width:26.0712;stroke-dasharray:none;stroke-opacity:1" />
    <text
       xml:space="preserve"
       style="font-style:normal;font-variant:normal;font-weight:600;font-stretch:normal;font-size:14.1111px;font-family:Orbitron;-inkscape-font-specification:'Orbitron Semi-Bold';fill:#000000;stroke:#000000;stroke-width:6.898;stroke-dasharray:none;stroke-opacity:1"
       x="172.45482"
       y="160.8936"
       id="text4079"><tspan
         sodipodi:role="line"
         style="stroke-width:6.898"
         x="172.45482"
         y="160.8936"
         id="tspan4091" /></text>
    <text
       xml:space="preserve"
       transform="scale(0.26458333)"
       id="text175"
       style="font-style:normal;font-variant:normal;font-weight:bold;font-stretch:normal;font-size:53.3333px;font-family:sans-serif;-inkscape-font-specification:'sans-serif Bold';white-space:pre;shape-inside:url(#rect177);display:inline;fill:#000000;stroke:#000000;stroke-width:26.0712" />
    <text
       xml:space="preserve"
       transform="scale(0.26458333)"
       id="text1642"
       style="font-style:normal;font-variant:normal;font-weight:bold;font-stretch:normal;font-size:13.3333px;font-family:sans-serif;-inkscape-font-specification:'sans-serif Bold';white-space:pre;shape-inside:url(#rect1644);display:inline;fill:none;stroke:#000000;stroke-width:26.0712;stroke-opacity:1" />
    <g
       aria-label="NKS
"
       transform="matrix(1.6355634,0,0,1.7754735,-897.67021,-986.39397)"
       id="text1702"
       style="font-weight:bold;font-size:53.3333px;-inkscape-font-specification:'sans-serif Bold';white-space:pre;fill:url(#Strips1_1);stroke:#000000;stroke-width:3.77953">
      <path
         d="m 614.72885,683.25684 v -38.39998 h 7.30666 l 24.63999,29.33332 v -29.33332 h 6.45333 v 38.39998 h -7.30666 l -24.69332,-29.38665 v 29.38665 z"
         style="-inkscape-font-specification:'Orbitron Semi-Bold';fill:#ffa100;stroke:none"
         id="path1845" />
      <path
         d="m 659.15543,683.25684 v -38.39998 h 7.09333 v 15.62666 h 9.01333 l 13.11999,-15.62666 h 7.68 v 2.02667 l -14.4,17.17332 14.45333,17.17332 v 2.02667 h -7.73333 l -13.11999,-15.62666 h -9.01333 v 15.62666 z"
         style="-inkscape-font-specification:'Orbitron Bold';fill:#f2ff00;stroke:none"
         id="path1847" />
      <path
         d="m 708.86202,683.25684 q -2.02667,0 -3.73333,-1.01333 -1.65334,-1.01334 -2.66667,-2.66667 -1.01333,-1.70666 -1.01333,-3.73333 v -2.93333 h 7.04 v 2.61333 q 0,0.26667 0.16,0.48 0.21333,0.16 0.47999,0.16 h 22.98666 q 0.26666,0 0.42666,-0.16 0.21334,-0.21333 0.21334,-0.48 v -7.30666 q 0,-0.26667 -0.21334,-0.42667 -0.16,-0.16 -0.42666,-0.16 h -23.25332 q -2.02667,0 -3.73333,-1.01333 -1.65334,-1.01333 -2.66667,-2.66667 -1.01333,-1.70666 -1.01333,-3.78666 v -7.89333 q 0,-2.02666 1.01333,-3.68 1.01333,-1.70666 2.66667,-2.72 1.70666,-1.01333 3.73333,-1.01333 h 23.57332 q 2.02666,0 3.68,1.01333 1.70666,1.01334 2.71999,2.72 1.01334,1.65334 1.01334,3.68 v 2.93333 h -7.09333 v -2.61333 q 0,-0.26667 -0.21334,-0.42667 -0.16,-0.21333 -0.42666,-0.21333 h -22.98666 q -0.26666,0 -0.47999,0.21333 -0.16,0.16 -0.16,0.42667 v 7.30666 q 0,0.26667 0.16,0.42667 0.21333,0.16 0.47999,0.16 h 23.30666 q 2.02666,0 3.68,1.01333 1.70666,1.01333 2.71999,2.72 1.01334,1.65333 1.01334,3.73333 v 7.89333 q 0,2.02667 -1.01334,3.73333 -1.01333,1.65333 -2.71999,2.66667 -1.65334,1.01333 -3.68,1.01333 z"
         style="-inkscape-font-specification:'Orbitron Bold';fill:#01fef8;stroke:none"
         id="path1849" />
    </g>
  </g>
</svg>
